<?xml version="1.0" standalone="no"?>
<!DOCTYPE svg PUBLIC "-//W3C//DTD SVG 20010904//EN"
 "http://www.w3.org/TR/2001/REC-SVG-20010904/DTD/svg10.dtd">
<svg version="1.0" xmlns="http://www.w3.org/2000/svg"
 width="5000.000000pt" height="5000.000000pt" viewBox="0 0 5000.000000 5000.000000"
 preserveAspectRatio="xMidYMid meet">
<metadata>
Created by potrace 1.11, written by Peter Selinger 2001-2013
</metadata>
<g transform="translate(0.000000,5000.000000) scale(0.100000,-0.100000)"
fill="#000000" stroke="none">
<path d="M27459 47206 c-2 -2 -40 -7 -84 -11 -72 -6 -182 -24 -345 -56 -112
-22 -292 -78 -485 -151 -67 -25 -339 -161 -426 -212 -274 -162 -610 -455 -812
-709 -117 -147 -241 -336 -324 -492 -69 -132 -161 -339 -183 -412 l-12 -40
-327 -7 c-179 -3 -360 -9 -401 -11 -276 -17 -404 -27 -465 -35 -38 -5 -133
-16 -210 -25 -77 -8 -167 -20 -200 -25 -33 -5 -91 -14 -130 -20 -38 -5 -126
-20 -195 -31 -69 -11 -161 -27 -205 -34 -211 -34 -737 -140 -920 -185 -44 -10
-163 -40 -265 -64 -395 -96 -512 -127 -835 -218 -38 -10 -108 -30 -155 -42
-47 -13 -107 -30 -135 -39 -27 -9 -97 -30 -155 -47 -273 -82 -496 -153 -850
-271 -417 -139 -555 -187 -940 -329 -41 -16 -111 -41 -155 -58 -189 -69 -741
-292 -1010 -407 -463 -198 -767 -339 -1215 -562 -375 -187 -490 -248 -855
-453 -198 -111 -552 -328 -755 -463 -127 -84 -431 -299 -457 -322 -6 -5 -55
-44 -109 -85 -267 -206 -423 -348 -849 -774 -215 -215 -415 -418 -445 -451
-55 -60 -178 -196 -280 -310 -107 -119 -172 -193 -186 -214 -14 -19 -18 -20
-42 -7 -97 50 -455 151 -638 181 -55 8 -126 20 -159 26 -97 16 -467 22 -605
10 -290 -25 -507 -70 -765 -156 -195 -66 -405 -164 -594 -278 -122 -73 -123
-74 -275 -188 -617 -460 -1053 -1185 -1175 -1954 -28 -178 -30 -202 -37 -430
-6 -182 6 -383 31 -525 2 -14 9 -55 15 -92 27 -172 108 -457 175 -613 162
-377 345 -663 601 -940 233 -253 567 -504 866 -652 43 -21 79 -42 81 -48 2 -5
0 -59 -4 -120 -43 -563 -21 -1609 46 -2250 2 -27 10 -97 15 -155 13 -121 12
-115 40 -325 35 -267 102 -653 159 -920 54 -251 69 -315 157 -645 58 -219 177
-588 264 -820 18 -47 38 -101 45 -120 144 -387 425 -967 633 -1310 25 -41 51
-84 57 -95 93 -166 396 -597 575 -818 52 -65 110 -137 128 -160 64 -81 277
-313 421 -461 218 -221 626 -583 805 -711 15 -11 58 -43 94 -70 128 -97 298
-213 512 -350 42 -27 167 -101 305 -181 105 -61 511 -268 630 -321 39 -18 95
-43 125 -57 323 -145 858 -336 1240 -443 592 -164 1194 -281 1745 -338 33 -3
71 -8 84 -11 l23 -5 -7 -272 c-4 -150 -9 -294 -11 -322 -8 -117 -24 -1138 -23
-1580 0 -658 18 -1425 44 -1926 2 -48 9 -183 14 -300 6 -118 15 -266 21 -329
5 -63 14 -173 20 -245 25 -316 31 -383 54 -600 28 -253 51 -455 65 -555 6 -36
15 -103 21 -150 32 -240 114 -714 154 -886 9 -38 30 -130 47 -204 138 -609
346 -1162 566 -1510 112 -175 309 -389 442 -479 261 -177 593 -216 886 -104
39 15 82 35 97 45 14 10 29 18 33 18 16 0 162 108 227 169 61 56 154 158 222
242 11 13 55 77 99 141 43 65 80 118 82 118 2 0 43 -53 91 -117 49 -65 90
-120 94 -123 3 -3 34 -41 70 -85 82 -103 220 -263 335 -390 l91 -100 13 -165
c46 -600 158 -1056 389 -1575 117 -264 320 -603 511 -856 233 -307 568 -639
886 -879 223 -168 389 -380 402 -514 16 -178 -238 -322 -762 -431 -285 -59
-347 -81 -524 -188 -96 -57 -261 -210 -327 -303 -52 -73 -124 -223 -150 -314
-28 -96 -26 -360 3 -445 61 -180 140 -311 268 -444 321 -336 899 -594 1681
-751 165 -34 470 -85 569 -95 33 -4 69 -8 81 -10 11 -2 52 -6 90 -10 38 -3 94
-11 125 -16 98 -16 527 -27 754 -18 485 18 888 105 1375 296 101 39 333 154
460 228 467 270 898 651 1284 1135 37 47 141 188 201 274 112 160 158 234 350
561 118 201 347 692 459 980 19 50 47 122 62 160 37 95 97 268 138 395 23 73
39 106 52 111 11 4 75 17 144 29 69 12 177 32 241 46 64 13 138 27 165 30 l49
5 82 -93 c158 -178 394 -407 519 -502 22 -17 76 -58 120 -91 195 -147 332
-296 399 -436 57 -120 46 -191 -45 -272 -52 -46 -173 -117 -235 -137 -22 -7
-44 -16 -50 -20 -19 -15 -270 -79 -445 -114 -281 -57 -425 -122 -616 -281
-232 -193 -364 -458 -364 -730 0 -475 386 -890 1088 -1169 421 -168 930 -285
1592 -367 444 -55 951 -56 1310 -4 158 23 454 80 472 91 4 3 40 13 80 24 117
31 335 105 423 144 17 8 64 28 105 46 290 125 606 321 909 564 144 115 489
455 607 597 271 328 467 615 682 1001 300 536 580 1227 782 1933 17 61 40 139
50 175 90 315 204 842 280 1295 31 179 72 403 90 480 5 22 19 126 32 230 29
248 32 752 4 990 -53 459 -176 922 -349 1310 -96 215 -279 548 -377 687 -17
24 -41 59 -54 78 -70 104 -192 258 -303 384 -66 75 -72 90 -49 134 17 33 145
418 176 527 12 44 26 89 31 100 10 24 114 427 130 505 6 30 15 71 19 90 50
219 123 644 145 842 3 32 10 92 16 135 19 155 39 444 50 745 20 540 -18 1206
-97 1703 -9 55 -18 114 -20 130 -24 155 -48 279 -89 475 -26 120 -126 520
-145 580 -9 30 -34 111 -55 180 -88 295 -252 736 -380 1025 -141 317 -339 705
-480 940 -22 39 -63 106 -89 150 -220 372 -606 906 -885 1225 -40 47 -86 99
-100 115 -258 295 -622 655 -931 921 -394 339 -903 706 -1285 929 -55 32 -112
66 -126 75 -40 28 -381 212 -521 281 -71 35 -128 68 -128 73 0 6 46 57 103
115 112 116 337 363 438 481 35 42 87 103 115 136 29 33 100 120 158 194 59
74 112 142 119 150 71 89 274 369 387 536 325 478 593 953 821 1456 49 109 89
200 89 204 0 3 6 20 14 37 28 61 93 228 149 382 45 123 126 374 168 524 22 81
47 168 55 194 8 26 23 87 33 135 11 48 33 151 50 229 63 293 113 655 142 1038
14 184 14 870 0 1060 -24 317 -50 534 -106 875 -42 254 -151 709 -232 965 -56
180 -138 422 -150 445 -7 14 -13 29 -13 33 0 15 -141 374 -197 502 -170 389
-349 744 -544 1082 -50 87 -100 173 -111 191 -169 296 -589 910 -848 1240 -36
46 -72 94 -80 105 -8 12 -35 47 -61 77 -25 30 -86 105 -134 165 -82 103 -281
340 -315 375 -8 9 -42 47 -75 85 -233 268 -614 657 -844 863 -84 75 -159 143
-166 149 -61 58 -519 424 -595 475 -14 9 -36 25 -48 36 l-24 19 21 69 c56 189
91 411 111 684 20 286 -29 706 -116 1000 -35 116 -77 240 -114 330 -40 99
-157 328 -209 410 -22 36 -48 78 -57 94 -44 78 -224 307 -359 454 -61 68 -241
226 -355 313 -447 343 -971 552 -1533 614 -123 13 -576 22 -588 11z m-2469
-3256 c317 -14 424 -21 670 -49 47 -6 108 -12 135 -15 124 -13 358 -49 590
-91 228 -40 643 -138 874 -207 75 -22 165 -48 201 -58 87 -25 486 -164 571
-199 13 -6 56 -22 94 -37 395 -151 996 -453 1383 -696 408 -256 832 -575 1172
-881 162 -145 475 -458 619 -617 57 -63 122 -135 145 -159 22 -24 54 -60 71
-81 16 -20 100 -120 186 -221 223 -264 519 -646 671 -864 19 -27 55 -79 80
-115 152 -218 392 -598 503 -795 15 -27 55 -97 87 -155 72 -128 242 -464 310
-615 138 -302 314 -756 385 -993 110 -370 158 -569 218 -912 43 -245 42 -236
54 -355 6 -55 13 -120 16 -145 19 -172 27 -323 32 -585 5 -305 -5 -509 -41
-845 -66 -605 -239 -1256 -493 -1855 -83 -196 -120 -277 -214 -465 -265 -533
-565 -1003 -983 -1540 -49 -63 -92 -117 -95 -120 -3 -3 -35 -41 -71 -85 -70
-86 -265 -314 -284 -330 -6 -5 -68 -73 -138 -150 -135 -150 -485 -498 -658
-656 -591 -538 -1131 -957 -1833 -1421 -227 -150 -347 -223 -627 -379 -63 -35
-124 -69 -135 -76 -11 -7 -29 -16 -40 -22 -11 -5 -103 -55 -205 -111 -197
-108 -932 -476 -1115 -558 -60 -27 -153 -70 -205 -95 -52 -24 -149 -68 -215
-97 -66 -29 -138 -60 -160 -70 -129 -56 -221 -96 -410 -176 -129 -54 -588
-238 -660 -265 -27 -9 -122 -45 -210 -79 -321 -123 -1071 -384 -1290 -450 -33
-10 -105 -32 -160 -50 -219 -70 -283 -89 -507 -154 -46 -13 -137 -40 -203 -59
-117 -34 -248 -70 -390 -107 -38 -10 -122 -32 -185 -49 -195 -51 -351 -91
-435 -110 -44 -10 -170 -40 -280 -65 -110 -25 -218 -50 -240 -56 -57 -13 -91
-19 -197 -35 -51 -8 -154 -23 -228 -34 -74 -11 -171 -25 -215 -31 -44 -5 -114
-15 -155 -20 -41 -6 -142 -17 -225 -26 -82 -8 -190 -19 -240 -24 -49 -6 -160
-14 -245 -20 -85 -6 -211 -15 -280 -21 -202 -16 -939 -22 -1220 -10 -264 11
-592 34 -740 51 -303 34 -368 42 -480 60 -69 11 -156 25 -195 31 -100 15 -380
68 -445 83 -30 8 -109 26 -175 41 -811 186 -1618 504 -2290 903 -599 356
-1180 844 -1616 1357 -19 22 -36 42 -39 45 -38 38 -228 280 -326 415 -305 421
-590 923 -769 1355 -13 30 -46 111 -75 180 -167 402 -345 978 -446 1440 -32
146 -91 449 -110 560 -15 93 -79 552 -89 640 -58 527 -76 891 -77 1515 0 560
12 783 67 1200 60 459 190 1042 316 1415 58 172 120 347 146 410 48 119 125
304 150 360 40 88 244 500 278 560 124 218 184 323 217 375 20 33 51 85 69
115 32 56 214 331 297 450 78 112 329 450 383 517 19 22 56 70 84 105 27 34
59 74 72 88 12 14 80 95 152 181 333 399 1066 1159 1376 1426 248 214 432 351
765 570 96 63 188 125 205 136 29 21 407 247 435 260 8 4 24 13 35 20 48 29
207 118 290 162 50 26 131 69 180 95 110 59 655 329 783 388 154 71 440 200
527 237 359 155 480 205 660 277 181 72 295 117 495 193 52 20 118 45 145 55
72 28 255 93 450 161 94 33 206 72 250 88 69 25 230 78 460 153 78 25 456 142
565 174 292 87 385 114 465 134 39 10 122 32 185 50 158 43 502 130 695 174
88 21 196 46 240 56 116 28 672 136 895 175 22 4 66 10 310 46 62 9 231 29
410 49 325 36 812 48 1240 30z m613 -19516 l128 -7 -6 -106 c-3 -58 -10 -160
-15 -226 -8 -102 -28 -505 -35 -725 -1 -36 -6 -148 -10 -250 -43 -1070 -47
-2465 -10 -3580 2 -52 6 -156 10 -230 4 -74 9 -162 10 -195 6 -174 27 -523 35
-610 6 -55 12 -129 15 -165 9 -125 36 -436 45 -520 5 -47 14 -134 20 -195 6
-60 17 -159 25 -220 9 -60 22 -162 30 -225 70 -575 204 -1249 336 -1695 101
-340 185 -559 314 -820 77 -154 192 -344 255 -419 244 -289 410 -404 665 -462
151 -34 419 -16 530 35 11 5 43 19 70 31 161 68 366 246 532 460 48 62 183
264 183 274 0 2 19 37 43 78 46 79 187 369 211 433 8 22 29 74 46 115 77 181
229 637 296 885 14 55 35 129 45 165 16 56 34 130 114 465 8 33 23 103 34 155
85 413 106 517 137 694 56 322 142 875 169 1091 4 28 11 79 16 115 5 36 16
124 25 195 9 72 20 162 25 200 8 64 31 277 45 414 3 31 7 63 9 71 3 8 12 92
20 185 9 94 18 193 21 220 5 53 18 195 34 373 5 59 12 141 15 182 3 41 10 127
16 190 5 63 16 212 24 330 8 118 19 276 25 350 9 121 28 450 46 788 4 67 11
122 16 122 15 0 468 -458 594 -600 326 -365 665 -821 905 -1215 221 -362 367
-632 492 -910 25 -55 61 -135 81 -178 20 -42 36 -80 36 -83 0 -3 11 -29 24
-57 54 -119 189 -488 254 -697 65 -204 132 -446 132 -473 0 -9 -18 -19 -47
-26 -85 -22 -417 -132 -471 -157 -29 -13 -55 -24 -59 -24 -3 0 -29 -11 -57
-23 -28 -13 -89 -42 -136 -63 -745 -342 -1434 -952 -1882 -1664 -253 -402
-437 -835 -552 -1295 -39 -158 -69 -310 -86 -435 -6 -47 -15 -112 -20 -146
-29 -185 -29 -820 0 -1019 5 -38 17 -117 25 -175 49 -332 173 -770 302 -1058
12 -29 23 -54 23 -57 0 -6 -93 -22 -251 -45 -206 -28 -202 -28 -329 -40 -63
-5 -158 -14 -210 -20 -52 -5 -222 -15 -378 -22 -247 -10 -324 -10 -605 5 -290
16 -564 37 -672 52 -322 45 -594 91 -770 132 -387 88 -669 170 -1025 296 -132
47 -356 135 -425 167 -11 5 -87 39 -170 76 -82 36 -161 72 -175 79 -14 7 -68
34 -120 60 -191 96 -478 254 -580 319 -19 13 -91 58 -160 102 -173 109 -485
327 -570 397 -9 8 -47 37 -85 66 -39 30 -72 56 -75 60 -3 3 -23 19 -45 36 -39
28 -255 212 -265 225 -3 4 -42 39 -87 78 -110 97 -405 391 -534 532 -158 174
-262 297 -432 512 -130 164 -315 426 -442 628 -43 69 -88 141 -100 160 -121
191 -315 555 -430 805 -147 318 -317 760 -391 1013 -13 45 -36 121 -50 170
-101 343 -177 703 -245 1157 -88 596 -99 1368 -30 1995 9 84 27 130 123 325
144 292 419 732 592 948 232 289 469 545 661 712 44 39 89 78 100 88 76 70
335 269 467 361 100 69 129 79 315 120 82 17 547 135 693 175 361 100 533 148
665 188 83 25 195 58 250 75 246 73 986 317 1165 383 l95 35 140 -5 c77 -2
198 -8 268 -11z"/>
<path d="M26429 35853 c-65 -67 -204 -182 -310 -255 -404 -280 -1024 -531
-1637 -664 -180 -39 -414 -81 -547 -99 -66 -9 -131 -18 -145 -20 -23 -3 -65
-8 -165 -20 -224 -26 -696 -39 -984 -26 -364 17 -575 43 -911 115 -305 66
-644 200 -845 336 l-75 50 -14 -34 c-16 -40 -63 -238 -81 -346 -42 -250 -59
-643 -35 -822 5 -40 16 -125 25 -188 58 -430 228 -869 494 -1275 25 -38 51
-77 58 -85 7 -8 49 -62 94 -120 45 -58 148 -170 228 -250 354 -354 741 -595
1201 -749 198 -67 353 -103 575 -136 346 -51 786 -33 1115 46 109 27 330 89
350 100 8 4 53 22 100 40 377 143 737 377 1038 673 254 250 442 505 597 811
143 280 242 573 290 855 9 52 18 106 21 120 29 162 29 679 -1 860 -8 52 -17
111 -20 130 -20 149 -96 410 -180 620 -45 113 -169 365 -183 374 -5 3 -29 -15
-53 -41z m-2861 -1813 c137 -32 172 -42 178 -51 3 -5 12 -9 20 -9 30 0 168
-71 263 -135 327 -220 538 -576 572 -964 67 -767 -526 -1419 -1291 -1421 -64
0 -154 5 -200 10 -79 10 -272 62 -295 80 -5 4 -27 13 -48 20 -69 22 -228 124
-326 209 -64 56 -198 203 -210 231 -3 8 -24 42 -45 74 -79 121 -154 322 -176
473 -12 86 -12 318 0 403 23 162 109 389 194 514 219 324 561 537 936 586 104
14 329 3 428 -20z"/>
<path d="M22936 32737 c-34 -17 -91 -62 -130 -102 -113 -112 -166 -243 -166
-405 0 -252 139 -454 375 -547 62 -24 83 -27 195 -27 145 -1 218 18 317 84 81
53 102 74 160 161 73 111 95 180 99 314 3 98 0 118 -24 190 l-27 80 -140 1
c-161 1 -217 13 -341 74 -82 40 -197 134 -223 184 -18 32 -22 32 -95 -7z"/>
<path d="M16926 34263 c-3 -4 -6 -28 -6 -54 0 -95 -58 -314 -125 -474 -89
-212 -288 -529 -477 -760 -151 -184 -199 -237 -398 -435 -189 -189 -230 -228
-390 -365 -117 -101 -106 -93 -342 -271 -310 -235 -824 -561 -1062 -675 -405
-192 -664 -292 -1021 -394 -83 -23 -274 -62 -370 -75 -175 -22 -158 -15 -152
-63 10 -67 75 -270 134 -416 154 -381 383 -727 678 -1026 83 -84 213 -198 292
-257 32 -24 60 -45 63 -49 3 -3 41 -30 85 -60 478 -325 1006 -507 1573 -541
715 -43 1419 156 1993 563 240 170 427 347 639 603 256 309 481 768 584 1189
33 132 44 194 78 417 17 113 16 557 -1 670 -45 301 -75 439 -139 635 -250 763
-769 1382 -1487 1772 -123 67 -140 74 -149 66z m-98 -2564 c163 -25 405 -128
545 -232 208 -154 335 -321 458 -602 10 -24 48 -164 60 -221 16 -82 21 -261
10 -374 -21 -210 -98 -419 -220 -595 -189 -273 -438 -445 -781 -536 -96 -26
-366 -37 -490 -20 -77 10 -224 48 -275 71 -273 121 -422 236 -591 455 -74 96
-168 293 -194 405 -7 30 -16 60 -20 65 -13 17 -30 184 -30 295 0 104 14 260
27 290 3 8 7 20 8 26 45 209 174 433 350 609 135 136 221 192 470 306 11 5 38
13 60 18 22 5 67 17 100 26 120 34 349 40 513 14z"/>
<path d="M16215 30370 c-169 -99 -275 -289 -275 -491 0 -64 25 -196 41 -215 5
-6 9 -16 7 -20 -5 -21 48 -100 113 -168 110 -116 251 -176 414 -176 104 0 194
22 275 67 85 46 124 81 187 167 118 161 146 354 79 546 -14 40 -28 75 -31 78
-2 3 -30 0 -61 -7 -218 -43 -477 31 -628 181 -37 37 -69 68 -70 68 0 0 -23
-13 -51 -30z"/>
<path d="M21944 30506 c-79 -19 -138 -60 -248 -170 -217 -219 -571 -401 -1031
-530 -335 -93 -734 -129 -1000 -89 -158 23 -247 22 -318 -6 -158 -62 -247
-193 -247 -364 0 -93 19 -158 68 -230 108 -156 254 -190 872 -207 273 -7 324
-11 384 -29 188 -56 226 -96 370 -385 l109 -219 63 -39 c71 -45 62 -26 147
-288 30 -91 66 -203 82 -250 22 -67 25 -85 14 -89 -8 -2 -81 -39 -164 -80
-515 -262 -961 -666 -1287 -1166 -47 -71 -107 -172 -134 -224 -45 -85 -49
-100 -49 -160 1 -51 7 -77 27 -116 50 -96 122 -138 232 -138 108 1 179 44 231
140 23 42 85 148 118 203 145 237 407 524 653 717 307 239 706 430 1094 522
233 56 398 75 655 74 127 0 246 -3 265 -5 19 -3 78 -11 130 -17 269 -34 564
-124 840 -257 155 -74 208 -85 291 -61 110 33 179 127 179 246 0 124 -55 191
-225 274 -257 126 -556 227 -840 281 -231 45 -459 62 -731 54 -131 -4 -250 -9
-264 -12 -14 -2 -68 -10 -120 -16 -82 -11 -311 -56 -376 -75 -24 -7 -28 3
-133 324 l-60 185 29 40 c15 23 33 64 40 93 11 48 9 65 -19 185 -69 297 -68
401 6 532 69 122 199 259 427 451 326 274 337 284 375 365 23 49 26 67 25 160
0 91 -4 113 -26 160 -54 115 -159 196 -282 219 -73 13 -106 13 -172 -3z"/>
<path d="M24050 15821 c-111 -36 -187 -113 -221 -222 -25 -79 -24 -109 3 -193
54 -165 218 -255 386 -212 120 31 196 105 234 230 19 63 20 76 9 130 -24 115
-84 196 -183 247 -46 24 -180 36 -228 20z"/>
</g>
</svg>
